inDegrees=no
num_controls=7
num_derivatives=13
num_iterations=38
num_multipliers=7
num_parameters=0
num_slacks=7
num_states=26
objective=0.426523
objective_accelerations=0.057900
objective_balance=0.001138
objective_effort=0.015350
objective_height=0.346168
objective_ligament=0.005966
solver_duration=614.227376
status=Solve_Succeeded
success=true
DataType=double
version=3
OpenSimVersion=4.5
endheader
time	/jointset/ground_pelvis/pelvis_tilt/value	/jointset/ground_pelvis/pelvis_tx/value	/jointset/ground_pelvis/pelvis_ty/value	/jointset/hip_l/hip_flexion_l/value	/jointset/hip_l/hip_adduction_l/value	/jointset/hip_l/hip_rotation_l/value	/jointset/back/lumbar_extension/value	/jointset/patellofemoral_l/patellar_flexion_l/value	/jointset/knee_l/knee_flexion_l/value	/jointset/knee_l/knee_adduction_l/value	/jointset/knee_l/knee_rotation_l/value	/jointset/ankle_l/ankle_angle_l/value	/jointset/subtalar_l/subtalar_angle_l/value	/jointset/ground_pelvis/pelvis_tilt/speed	/jointset/ground_pelvis/pelvis_tx/speed	/jointset/ground_pelvis/pelvis_ty/speed	/jointset/hip_l/hip_flexion_l/speed	/jointset/hip_l/hip_adduction_l/speed	/jointset/hip_l/hip_rotation_l/speed	/jointset/back/lumbar_extension/speed	/jointset/patellofemoral_l/patellar_flexion_l/speed	/jointset/knee_l/knee_flexion_l/speed	/jointset/knee_l/knee_adduction_l/speed	/jointset/knee_l/knee_rotation_l/speed	/jointset/ankle_l/ankle_angle_l/speed	/jointset/subtalar_l/subtalar_angle_l/speed	/forceset/tau_hip_flexion_l	/forceset/tau_hip_adduction_l	/forceset/tau_hip_rotation_l	/forceset/tau_knee_flexion_l	/forceset/tau_ankle_angle_l	/forceset/tau_subtalar_angle_l	/forceset/tau_lumbar_extension	lambda_cid13_p0	lambda_cid13_p1	lambda_cid13_p2	lambda_cid13_p3	lambda_cid13_p4	lambda_cid13_p5	lambda_cid14_p0	/jointset/ground_pelvis/pelvis_tilt/accel	/jointset/ground_pelvis/pelvis_tx/accel	/jointset/ground_pelvis/pelvis_ty/accel	/jointset/hip_l/hip_flexion_l/accel	/jointset/hip_l/hip_adduction_l/accel	/jointset/hip_l/hip_rotation_l/accel	/jointset/back/lumbar_extension/accel	/jointset/patellofemoral_l/patellar_flexion_l/accel	/jointset/knee_l/knee_flexion_l/accel	/jointset/knee_l/knee_adduction_l/accel	/jointset/knee_l/knee_rotation_l/accel	/jointset/ankle_l/ankle_angle_l/accel	/jointset/subtalar_l/subtalar_angle_l/accel	gamma_cid13_p0	gamma_cid13_p1	gamma_cid13_p2	gamma_cid13_p3	gamma_cid13_p4	gamma_cid13_p5	gamma_cid14_p0
1	-0.4497838703110183	-0.001522940860285709	0.5958552460065855	1.693816430577084	-0.3466680138916445	0.130174778635697	-0.4361709082923917	1.504354425921329	1.504354425921308	0.06452480691109772	-0.1741798456935446	0.4349298491355481	0.2492065447147201	-0.1438851039541034	0.002655396283907255	0.03509034724282739	0.02055191555357846	-0.0005276207147391416	-0.055278206949408	-0.002583353393645523	-0.1578959687604832	-0.1578959687604827	-0.007728191672401108	-2.141507388818754e-05	-0.04816890018648289	-0.02990600485796424	-0.2356744861828232	0.08540721086361336	-0.01355633629329791	-0.2932102471776292	-0.01368736816123781	-0.01581186611003798	0.2064185726434602	-40.45828437948703	24.89885452176119	-16.75559923077002	3.278960427024964	-542.0569223088901	-28.45556283571559	-0.02379908229701912	1.407205179882566	0.2551092157773515	1.999546980862691	-6.57877749542477	-0.2246549152753798	-1.501561765717701	-0.03379851784193866	-5.574106460012909	-5.574106460012921	-0.9159140661287996	-0.03019163831793752	-0.8855913839922159	-0.8903588212249283	-1.771582680704971e-09	-1.314530042535022e-07	-7.880056013438586e-08	-1.03747100651101e-08	-6.142239597538511e-09	-1.804698629742561e-07	8.582917138871927e-09
1.01	-0.4511530711730891	-0.001483603739527068	0.5963059126275175	1.693694073377084	-0.3466839974792099	0.1295491825748148	-0.4361973196730806	1.502497145390669	1.502497145390705	0.0644002954945653	-0.1741801454296919	0.4344038625821948	0.2488638273750783	-0.1299466640837277	0.005220821083321421	0.05503398304591106	-0.0450153392302667	-0.002664285788130917	-0.06983396732058689	-0.002678195390891877	-0.2135559995578289	-0.2135559995578295	-0.01716992539223079	-3.761288478270143e-05	-0.05703816416750958	-0.03862952664705518	-0.2361933453419424	0.0853672686891656	-0.01357299655003766	-0.29216116139527	-0.01416047558999214	-0.01574411555117309	0.2067249373363159	-40.56257280634807	24.82476170057535	-16.67190701605787	3.186922946019985	-541.9101624149407	-28.39457645504339	-0.02381609237676232	1.388424518030499	0.2585742885639534	1.990420835921785	-6.544496587575065	-0.2074324917476974	-1.431530956150357	0.005782063103167377	-5.561332923098257	-5.561332923098424	-0.9576884725054043	0.01277107443782774	-0.8890649285221252	-0.8621179765252774	-1.491474350808185e-09	-1.720769225546884e-07	-1.090465247346394e-07	-1.894152600033217e-08	-9.760712596183946e-09	-2.323054174255867e-07	1.100302307264625e-08
1.02	-0.4523826354109765	-0.001418349335466381	0.5969557453976587	1.692916284205707	-0.3467211997551833	0.1287782393535468	-0.4362240576529695	1.500083388245336	1.500083388245422	0.06418148965134506	-0.1741805861585608	0.4337888891843598	0.2484341209937908	-0.1159577791167216	0.007838852944316469	0.07492357708465576	-0.1105344787225324	-0.004771358396581399	-0.08434763902506255	-0.002648673237356363	-0.269191291695291	-0.2691912916952927	-0.02658707701587729	-4.961361915516752e-05	-0.0659662690831098	-0.04730381318711114	-0.2367122045010076	0.08532732651469419	-0.013589656806683	-0.2911120756129108	-0.01463358301876114	-0.01567636499235798	0.207031302029224	-40.66906366052311	24.74754539013799	-16.58370827792935	3.086172556234698	-541.873731410617	-28.34137182624881	-0.02383565743836018	1.41729419920875	0.2656306280934661	1.988738627994894	-6.569154437108888	-0.2187364222870897	-1.49314403237703	-0.008925687685185374	-5.56915872803621	-5.569158728036199	-0.9109976468921617	-0.02935222301349953	-0.8973595709070343	-0.8805117714179503	-1.454202889402079e-09	-2.115917833192187e-07	-1.368009712086506e-07	-2.700710196898809e-08	-1.344785884544138e-08	-2.793518404805961e-07	1.280353735006372e-08
1.03	-0.4534720023103984	-0.001326609348057224	0.5978041247000183	1.691483650468728	-0.3467792909944346	0.1278623747349966	-0.4362497535029137	1.497113505070749	1.497113505070807	0.06386872554513251	-0.1741811011513085	0.4330843002668529	0.2479179703581293	-0.1019015183224793	0.0105222069970372	0.09473544645032357	-0.1759741435544272	-0.006839409671335673	-0.0988140991721403	-0.002457325338580392	-0.3247710431533827	-0.3247710431533835	-0.03595754997663825	-5.120102945353347e-05	-0.07496523016056475	-0.05591422675155643	-0.2371113799598242	0.08531810063727899	-0.01357608323051562	-0.2897919709984773	-0.015142476930953	-0.01559306419562831	0.2072820652219169	-40.7640000844089	24.64851433906454	-16.4771392362371	2.96756849876362	-541.578296329169	-28.26437930269891	-0.02386128423385208	1.401904324910841	0.2716401002506466	1.974882100817882	-6.528653852134252	-0.1996894210422686	-1.421724793238868	0.03814074169318681	-5.550241274868886	-5.550241274868775	-0.9488591055849265	0.01471667452060891	-0.9032333080747613	-0.8494333143173055	-1.419409355225471e-09	-2.510953271701096e-07	-1.645299940283124e-07	-3.506756324410761e-08	-1.713570584215404e-08	-3.26349394847888e-07	1.45977292636408e-08
1.04	-0.4544203841408043	-0.001207645358843194	0.5988501168980277	1.689397163814256	-0.3468578327346267	0.1268021799574981	-0.4362725407312512	1.493588252797547	1.49358825279757	0.06346249931235073	-0.1741815762832442	0.4322893079521902	0.2473160901537514	-0.08776076531307099	0.01328365330529106	0.1144461562146285	-0.2413050622224963	-0.008861458584992521	-0.1132136708138483	-0.002066948918424599	-0.3802651114184059	-0.3802651114184061	-0.04527950233407595	-4.164145740658596e-05	-0.08404694851442551	-0.06444972693038206	-0.2375105554185714	0.08530887475985112	-0.01356250965427596	-0.2884718663840436	-0.01565137084315912	-0.01550976339892907	0.2075328284146797	-40.86139512329369	24.54646351333522	-16.36614743966108	2.840460366560231	-541.3946869539169	-28.19590726422444	-0.02388955622830963	1.434192642242032	0.2812490792000277	1.968506707722304	-6.547405204343751	-0.2095359500675737	-1.479766331303061	0.03088001659123558	-5.552022089422518	-5.552022089422564	-0.9012935262275107	-0.02712282654440921	-0.9139110261883142	-0.8655290942940409	-1.642222116489923e-09	-2.890590129880207e-07	-1.902797953315433e-07	-4.241897146154459e-08	-2.075437080361165e-08	-3.681684230190049e-07	1.588530279308817e-08
1.05	-0.4552268056799116	-0.001060623694151955	0.6000926359034707	1.686657929794111	-0.3469563451884968	0.1255983023336031	-0.4362903398120223	1.489508611495462	1.489508611495427	0.06296340579359393	-0.1741818934445293	0.4314030821269835	0.2466292819436048	-0.07349630375488499	0.01613906812009888	0.1340334785041473	-0.3065227063887584	-0.01083193052385588	-0.127548273667011	-0.001450886535277211	-0.4356366538883417	-0.4356366538883416	-0.05452571352890338	-1.946667156072808e-05	-0.09321187856452696	-0.0728949294693232	-0.2378179355261841	0.08533970660793627	-0.0135211411305554	-0.2868567580033347	-0.01621374341614258	-0.01541595208309361	0.2077503466793516	-40.95374126620594	24.425913133333	-16.2372994308729	2.692634392020402	-540.9573705058853	-28.09390032820255	-0.02392330435151892	1.426658128193901	0.2904359318347984	1.950215123382709	-6.506089385104408	-0.1893998686334784	-1.408278365525871	0.08326645589080733	-5.52574950356449	-5.525749503564446	-0.9342840495878272	0.01717260811022974	-0.9198484459883352	-0.831389886583548	-1.873085074486907e-09	-3.269745782424012e-07	-2.159677459623857e-07	-4.974822177092899e-08	-2.437087382646753e-08	-4.098256222464914e-07	1.715704449803149e-08
1.06	-0.4558897655603203	-0.0008844982314700902	0.6015303021585723	1.683267090259839	-0.3470742817723216	0.1242514844605289	-0.4363007188476511	1.484876048933121	1.484876048933023	0.06237225033625782	-0.1741819318625619	0.4304247941109653	0.2458585468974908	-0.05906843357320968	0.01910441290341614	0.1534756061463276	-0.3716261650484974	-0.01274628457622456	-0.1418017206482968	-0.0005829398835507514	-0.4908493634696953	-0.4908493634696948	-0.06369189006283288	1.410719273203575e-05	-0.1024593866773236	-0.08123509412384114	-0.2381253156337614	0.08537053845600007	-0.01347977260661731	-0.2852416496226193	-0.01677611598913728	-0.01532214076730652	0.2079678649440581	-41.04886971363057	24.30245940583337	-16.10411549052641	2.536353684407137	-540.6338665101194	-28.0015635834008	-0.02395981687657399	1.466874366939982	0.3032350729018514	1.939467778254609	-6.524568103039144	-0.198312372768607	-1.46353515692766	0.08125687030746152	-5.520255511706114	-5.520255511706115	-0.8852865940479269	-0.02484301085500031	-0.9304266387274761	-0.8445215174094219	-2.404962580575967e-09	-3.604002807284473e-07	-2.332197840699486e-07	-5.594940507121334e-08	-2.774853761421275e-08	-4.399334749040982e-07	1.698643915523864e-08
